# ProBuilder 4.5.2
# https://unity3d.com/unity/features/worldbuilding/probuilder
# 2021-09-12 PM 9:40:06

mtllib ./Cylinder.mtl
o Cylinder

g Cylinder
v 18.71319 -0.4461384 -10.20641
v 18.71319 0.004733801 -10.20641
v 18.64217 0.004733801 -10.34579
v 18.64217 -0.4461384 -10.34579
v 18.53156 0.004733801 -10.45641
v 18.53156 -0.4461384 -10.45641
v 18.39217 0.004733801 -10.52743
v 18.39217 -0.4461384 -10.52743
v 0 0.004733801 -10.52511
v 0 -0.4461384 -10.52511
v -18.39244 0.004733801 -10.52947
v -18.39244 -0.4461384 -10.52947
v -18.53183 0.004733801 -10.45845
v -18.53183 -0.4461384 -10.45845
v -18.64244 0.004733801 -10.34784
v -18.64244 -0.4461384 -10.34784
v -18.71346 0.004733801 -10.20845
v -18.71346 -0.4461384 -10.20845
v -18.71421 0.004733801 0
v -18.71421 -0.4461384 0
v -18.71415 0.004733801 10.20523
v -18.71415 -0.4461384 10.20523
v -18.64313 0.004733801 10.34461
v -18.64313 -0.4461384 10.34461
v -18.53251 0.004733801 10.45523
v -18.53251 -0.4461384 10.45523
v -18.39313 0.004733801 10.52625
v -18.39313 -0.4461384 10.52625
v -1.490116E-08 -0.4461384 10.52553
v -1.490116E-08 0.004733801 10.52553
v 18.39367 0.004733801 10.52786
v 18.39367 -0.4461384 10.52786
v 18.53305 0.004733801 10.45684
v 18.53305 -0.4461384 10.45684
v 18.64367 0.004733801 10.34623
v 18.64367 -0.4461384 10.34623
v 18.71469 0.004733801 10.20684
v 18.71469 -0.4461384 10.20684
v 18.71477 0.004733801 0
v 18.71477 -0.4461384 0
v 0 -0.4461384 0
v 0 0.004733801 0

vt 0.8212125 0.858867
vt 0.8212125 0.8665318
vt 0.823872 0.8665318
vt 0.823872 0.858867
vt 0.8323636 0.858867
vt 0.8323636 0.8665318
vt 0.8350234 0.8665318
vt 0.8350234 0.858867
vt 0.8444376 0.858867
vt 0.8444376 0.8665318
vt 0.8470964 0.8665318
vt 0.8470964 0.858867
vt 0.1870129 0.8573437
vt 0.1870129 0.8650085
vt 0.4996799 0.8650085
vt 0.4996799 0.8573437
vt 0.8123515 0.8650085
vt 0.8123515 0.8573437
vt 0.1519709 0.8585256
vt 0.1519709 0.8661904
vt 0.1546297 0.8661904
vt 0.1546297 0.8585256
vt 0.1640401 0.8585256
vt 0.1640401 0.8661904
vt 0.1666999 0.8661904
vt 0.1666999 0.8585256
vt 0.1751922 0.8585256
vt 0.1751922 0.8661904
vt 0.1778516 0.8661904
vt 0.1778516 0.8585256
vt 0.1738781 0.8518863
vt 0.181543 0.8518863
vt 0.1815429 0.6783426
vt 0.1738781 0.6783426
vt 0.1815429 0.5048537
vt 0.1738781 0.5048537
vt 0.1531283 0.4920276
vt 0.1531283 0.4996924
vt 0.1557876 0.4996924
vt 0.1557876 0.4920276
vt 0.1647515 0.4920276
vt 0.1647515 0.4996924
vt 0.1674113 0.4996924
vt 0.1674113 0.4920276
vt 0.1763716 0.4920276
vt 0.1763716 0.4996924
vt 0.1790304 0.4996924
vt 0.1790304 0.4920276
vt 0.1870012 0.4917041
vt 0.1870012 0.4993689
vt 0.4996844 0.4917041
vt 0.4996844 0.4993689
vt 0.8123767 0.4993689
vt 0.8123767 0.4917041
vt 0.8219652 0.4911514
vt 0.8219652 0.4988162
vt 0.8246241 0.4988162
vt 0.8246241 0.4911514
vt 0.8333011 0.4911514
vt 0.8333011 0.4988162
vt 0.8359609 0.4988162
vt 0.8359609 0.4911514
vt 0.8454162 0.4911514
vt 0.8454162 0.4988162
vt 0.8480756 0.4988162
vt 0.8480756 0.4911514
vt 0.8255004 0.5048261
vt 0.8178356 0.5048261
vt 0.8178356 0.6783425
vt 0.8255004 0.6783425
vt 0.8178356 0.8518515
vt 0.8255004 0.8518515
vt 0.8166014 0.1368519
vt 0.8178087 0.1392215
vt 0.8147209 0.1349715
vt 0.8123514 0.1337641
vt 0.8178356 0.3127304
vt 0.8178341 0.4862468
vt 0.4996844 0.1338036
vt 0.1870129 0.1337294
vt 0.8166268 0.4886163
vt 0.4996844 0.3127304
vt 0.8147463 0.4904968
vt 0.1846434 0.1349367
vt 0.1815555 0.1391867
vt 0.1827629 0.1368172
vt 0.1815439 0.4862193
vt 0.1815429 0.3127304
vt 0.1846317 0.4904693
vt 0.1827512 0.4885889
vt 0.8166015 0.854221
vt 0.814721 0.8561015
vt 0.8147463 0.5005762
vt 0.8166268 0.5024567
vt 0.1846434 0.8561363
vt 0.4996845 0.6783426
vt 0.182763 0.8542559
vt 0.1846317 0.5006037
vt 0.1827513 0.5024842

vn 0.9723532 0 -0.2335148
vn 0.8090155 0 -0.5877874
vn 0.5877823 0 -0.8090191
vn 0.2333889 0 -0.9723835
vn -4.978967E-06 0 -1
vn -0.2333348 0 -0.9723964
vn -0.5877823 0 -0.8090191
vn -0.8090155 0 -0.5877874
vn -0.9723628 0 -0.233475
vn -1 0 -4.658483E-05
vn -0.97237 0 0.2334452
vn -0.8090214 0 0.5877792
vn -0.5877883 0 0.8090148
vn -0.2334259 0 0.9723746
vn -7.141157E-05 0 1
vn 0.233378 0 0.9723861
vn 0.5877839 0 0.809018
vn 0.809015 0 0.5877879
vn 0.9723672 0 0.2334568
vn 1 0 -4.609669E-05
vn 0 -1 0
vn 0 1 0

usemtl TabletBody
f 31/53/22 42/96/22 30/52/22
f 30/52/22 42/96/22 27/50/22
f 35/94/22 42/96/22 33/93/22
f 33/93/22 42/96/22 31/53/22
f 39/69/22 42/96/22 37/68/22
f 37/68/22 42/96/22 35/94/22
f 3/91/22 42/96/22 2/71/22
f 2/71/22 42/96/22 39/69/22
f 5/92/22 42/96/22 3/91/22
f 7/18/22 42/96/22 5/92/22
f 9/16/22 42/96/22 7/18/22
f 11/13/22 42/96/22 9/16/22
f 13/95/22 42/96/22 11/13/22
f 15/97/22 42/96/22 13/95/22
f 17/32/22 42/96/22 15/97/22
f 19/33/22 42/96/22 17/32/22
f 21/35/22 42/96/22 19/33/22
f 23/99/22 42/96/22 21/35/22
f 27/50/22 42/96/22 25/98/22
f 25/98/22 42/96/22 23/99/22
f 9/15/5 7/14/4 8/13/4
f 10/16/5 9/15/5 8/13/4
f 11/17/6 9/15/5 10/16/5
f 12/18/6 11/17/6 10/16/5
f 19/33/10 17/32/9 18/31/9
f 20/34/10 19/33/10 18/31/9
f 21/35/11 19/33/10 20/34/10
f 22/36/11 21/35/11 20/34/10
f 31/53/16 30/52/15 29/51/15
f 32/54/16 31/53/16 29/51/15
f 30/52/15 27/50/14 28/49/14
f 29/51/15 30/52/15 28/49/14
f 39/69/20 37/68/19 38/67/19
f 40/70/20 39/69/20 38/67/19
f 2/71/1 39/69/20 40/70/20
f 1/72/1 2/71/1 40/70/20
f 34/83/21 41/82/21 36/81/21
f 32/54/21 41/82/21 34/83/21
f 38/78/21 41/82/21 40/77/21
f 36/81/21 41/82/21 38/78/21
f 1/74/21 41/82/21 4/73/21
f 40/77/21 41/82/21 1/74/21
f 4/73/21 41/82/21 6/75/21
f 6/75/21 41/82/21 8/76/21
f 8/76/21 41/82/21 10/79/21
f 20/88/21 41/82/21 22/87/21
f 22/87/21 41/82/21 24/90/21
f 16/86/21 41/82/21 18/85/21
f 18/85/21 41/82/21 20/88/21
f 10/79/21 41/82/21 12/80/21
f 12/80/21 41/82/21 14/84/21
f 14/84/21 41/82/21 16/86/21
f 24/90/21 41/82/21 26/89/21
f 29/51/21 41/82/21 32/54/21
f 28/49/21 41/82/21 29/51/21
f 26/89/21 41/82/21 28/49/21
f 3/3/2 2/2/1 1/1/1
f 1/1/1 4/4/2 3/3/2
f 5/7/3 3/6/2 4/5/2
f 4/5/2 6/8/3 5/7/3
f 7/11/4 5/10/3 6/9/3
f 6/9/3 8/12/4 7/11/4
f 13/21/7 11/20/6 12/19/6
f 12/19/6 14/22/7 13/21/7
f 15/25/8 13/24/7 14/23/7
f 14/23/7 16/26/8 15/25/8
f 17/29/9 15/28/8 16/27/8
f 16/27/8 18/30/9 17/29/9
f 23/39/12 21/38/11 22/37/11
f 22/37/11 24/40/12 23/39/12
f 25/43/13 23/42/12 24/41/12
f 24/41/12 26/44/13 25/43/13
f 27/47/14 25/46/13 26/45/13
f 26/45/13 28/48/14 27/47/14
f 33/57/17 31/56/16 32/55/16
f 32/55/16 34/58/17 33/57/17
f 35/61/18 33/60/17 34/59/17
f 34/59/17 36/62/18 35/61/18
f 37/65/19 35/64/18 36/63/18
f 36/63/18 38/66/19 37/65/19

