# ProBuilder 4.5.2
# https://unity3d.com/unity/features/worldbuilding/probuilder
# 2021-09-12 PM 9:40:06

mtllib ./Display.mtl
o Display

g Display
v 18.14025 0.01063055 -9.624624
v 18.06923 0.01063053 -9.764009
v 17.95861 0.01063052 -9.874624
v 18.14417 0.01063046 9.624501
v 18.14594 0.01063051 1.176596E-07
v 17.81923 0.01063051 -9.945644
v 1.396802E-10 0.01063051 -9.947759
v 17.96253 0.01063049 9.874501
v 18.07315 0.01063048 9.763885
v -17.82305 0.01063051 -9.948337
v -17.96243 0.01063052 -9.877316
v -1.453838E-08 0.0106305 9.956733
v 1.983883E-10 0.01063051 1.176775E-07
v 17.82315 0.0106305 9.94552
v -18.07305 0.01063053 -9.766701
v -17.81641 0.0106305 9.949489
v -18.13138 0.01063055 -9.627316
v -17.95579 0.01063049 9.878469
v -18.13771 0.01063051 1.176369E-07
v -18.12474 0.01063046 9.628469
v -18.06641 0.01063048 9.767853

vt 0.9998428 0.9837372
vt 0.9978855 0.9907396
vt 0.9948368 0.9962968
vt 0.9999508 0.01669076
vt 0.9999998 0.5002109
vt 0.9909953 0.9998647
vt 0.4998865 0.999971
vt 0.9949448 0.004131168
vt 0.9979935 0.009688348
vt 0.008672386 1
vt 0.004830897 0.9964321
vt 0.4998864 0
vt 0.4998865 0.5002109
vt 0.9911033 0.0005632341
vt 0.001782238 0.9908749
vt 0.008855313 0.0003639758
vt 0.0001744628 0.9838725
vt 0.005013794 0.00393191
vt 0 0.5002109
vt 0.0003573895 0.0164915
vt 0.001965165 0.009489059

vn -3.585323E-08 1 -6.293057E-08

usemtl Display
f 14/14/1 13/13/1 12/12/1
f 12/12/1 13/13/1 16/16/1
f 9/9/1 13/13/1 8/8/1
f 8/8/1 13/13/1 14/14/1
f 5/5/1 13/13/1 4/4/1
f 4/4/1 13/13/1 9/9/1
f 2/2/1 13/13/1 1/1/1
f 1/1/1 13/13/1 5/5/1
f 3/3/1 13/13/1 2/2/1
f 6/6/1 13/13/1 3/3/1
f 7/7/1 13/13/1 6/6/1
f 10/10/1 13/13/1 7/7/1
f 11/11/1 13/13/1 10/10/1
f 15/15/1 13/13/1 11/11/1
f 17/17/1 13/13/1 15/15/1
f 19/19/1 13/13/1 17/17/1
f 20/20/1 13/13/1 19/19/1
f 21/21/1 13/13/1 20/20/1
f 16/16/1 13/13/1 18/18/1
f 18/18/1 13/13/1 21/21/1

