# ProBuilder 4.5.2
# https://unity3d.com/unity/features/worldbuilding/probuilder
# 2021-09-12 PM 9:40:06

mtllib ./Lens_2.mtl
o Lens_2

g Lens_2
v 0.4755286 -1 -0.1545086
v 0.4755281 -0.7990673 -0.1545086
v 0.404508 -0.7990673 -0.2938924
v 0.4045088 -1 -0.2938928
v 0.2938924 -0.7990673 -0.404508
v 0.2938928 -1 -0.4045087
v 0.1545086 -0.7990673 -0.4755282
v 0.1545086 -1 -0.4755285
v -3.954569E-07 -0.7990673 -0.4999994
v 0 -1 -0.5000002
v -0.1545094 -0.7990673 -0.4755282
v -0.1545086 -1 -0.4755285
v -0.2938932 -0.7990673 -0.404508
v -0.2938927 -1 -0.4045087
v -0.4045088 -0.7990673 -0.2938924
v -0.4045086 -1 -0.2938927
v -0.4755289 -0.7990673 -0.1545086
v -0.4755284 -1 -0.1545085
v -0.5000002 -0.7990674 3.799332E-07
v -0.5000001 -1 0
v -0.4755289 -0.7990674 0.1545094
v -0.4755284 -1 0.1545085
v -0.4045088 -0.7990673 0.2938932
v -0.4045086 -1 0.2938927
v -0.2938932 -0.7990673 0.4045088
v -0.2938927 -1 0.4045086
v -0.1545094 -0.7990673 0.4755289
v -0.1545085 -1 0.4755283
v -3.954569E-07 -0.7990673 0.5000002
v -1.490116E-08 -1 0.5000001
v 0.1545076 -0.7990673 0.4755289
v 0.1545085 -1 0.4755283
v 0.2938924 -0.7990673 0.4045088
v 0.2938926 -1 0.4045085
v 0.404508 -0.7990673 0.2938932
v 0.4045085 -1 0.2938927
v 0.4755281 -0.7990674 0.1545094
v 0.4755283 -1 0.1545085
v 0.4999994 -0.7990674 3.799332E-07
v 0.5 -1 0
v 0 -1 0
v -3.954569E-07 -0.7990674 3.799332E-07

vt 0.1427308 0.8287813
vt 0.1427308 0.8488746
vt 0.1583743 0.8488746
vt 0.1583743 0.8287813
vt 0.2426364 0.8287807
vt 0.2426365 0.848874
vt 0.2582799 0.848874
vt 0.2582799 0.8287807
vt 0.3425421 0.8287807
vt 0.3425421 0.848874
vt 0.3581855 0.848874
vt 0.3581855 0.8287807
vt 0.4424475 0.8287814
vt 0.4424475 0.8488747
vt 0.458091 0.8488747
vt 0.458091 0.8287814
vt 0.5423529 0.8287809
vt 0.5423529 0.8488743
vt 0.5579964 0.8488743
vt 0.5579963 0.8287809
vt 0.6422583 0.828782
vt 0.6422584 0.8488753
vt 0.6579019 0.8488753
vt 0.6579018 0.828782
vt 0.7421638 0.8287817
vt 0.7421638 0.848875
vt 0.7578073 0.848875
vt 0.7578072 0.8287817
vt 0.842069 0.828782
vt 0.842069 0.8488753
vt 0.8577125 0.8488753
vt 0.8577124 0.828782
vt 0.9419745 0.8287827
vt 0.9419745 0.848876
vt 0.957618 0.8488759
vt 0.957618 0.8287827
vt 0.04282497 0.8287821
vt 0.04282501 0.8488753
vt 0.0584685 0.8488753
vt 0.05846842 0.8287821
vt 0.1427304 0.8307163
vt 0.1427305 0.8508096
vt 0.1583739 0.8508096
vt 0.1583739 0.8307163
vt 0.242636 0.8307158
vt 0.242636 0.8508091
vt 0.2582794 0.8508092
vt 0.2582794 0.8307158
vt 0.3425415 0.8307157
vt 0.3425415 0.850809
vt 0.3581849 0.850809
vt 0.358185 0.8307157
vt 0.442447 0.8307161
vt 0.4424469 0.8508095
vt 0.4580904 0.8508095
vt 0.4580905 0.8307161
vt 0.5423523 0.830715
vt 0.5423523 0.8508083
vt 0.5579957 0.8508083
vt 0.5579958 0.830715
vt 0.6422578 0.8307152
vt 0.6422576 0.8508085
vt 0.6579012 0.8508085
vt 0.6579012 0.8307152
vt 0.742163 0.8307151
vt 0.742163 0.8508084
vt 0.7578064 0.8508084
vt 0.7578065 0.8307151
vt 0.8420683 0.8307148
vt 0.8420682 0.8508081
vt 0.8577116 0.850808
vt 0.8577117 0.8307148
vt 0.9419735 0.8307151
vt 0.9419734 0.8508084
vt 0.9576169 0.8508084
vt 0.957617 0.8307151
vt 0.04282511 0.830714
vt 0.04282508 0.8508073
vt 0.05846857 0.8508073
vt 0.05846856 0.830714
vt 0.0988569 0.7915539
vt 0.02838877 0.6532523
vt 0.2086136 0.9013107
vt 0.3469154 0.971779
vt 0.004107505 0.4999442
vt 0.02838913 0.3466361
vt 0.500224 0.9960608
vt 0.6535327 0.971779
vt 0.09885708 0.2083347
vt 0.2086136 0.09857795
vt 0.7918344 0.9013106
vt 0.901591 0.7915536
vt 0.346915 0.02810972
vt 0.5002234 0.003827875
vt 0.9720588 0.6532521
vt 0.9963405 0.4999437
vt 0.653532 0.02810944
vt 0.5002239 0.4999443
vt 0.7918337 0.09857755
vt 0.9720586 0.3466355
vt 0.9015904 0.2083341

vn 0.9510566 2.679292E-06 -0.3090168
vn 0.8090166 3.708216E-06 -0.5877858
vn 0.5877866 4.153455E-06 -0.809016
vn 0.309016 2.289562E-06 -0.9510568
vn 8.22236E-07 3.363057E-06 -1
vn -0.3090177 9.481189E-07 -0.9510563
vn -0.587786 7.262159E-07 -0.8090165
vn -0.8090161 2.921183E-07 -0.5877865
vn -0.9510568 -2.050968E-06 -0.309016
vn -1 -9.868E-07 -8.750401E-07
vn -0.9510563 -3.179541E-06 0.3090176
vn -0.8090165 -2.824363E-06 0.587786
vn -0.5877865 -2.234839E-06 0.8090161
vn -0.3090161 -3.400737E-06 0.9510568
vn -3.01738E-07 -1.24909E-06 1
vn 0.3090165 -9.14166E-07 0.9510567
vn 0.5877852 -2.719011E-07 0.809017
vn 0.8090161 5.578168E-07 0.5877865
vn 0.9510568 -4.671978E-08 0.3090161
vn 1 2.310343E-06 8.373229E-07
vn 0 -1 0
vn -1.0754E-07 1 4.405629E-07

usemtl lens2
f 19/85/22 42/98/22 17/82/22
f 3/92/22 42/98/22 2/95/22
f 2/95/22 42/98/22 39/96/22
f 39/96/22 42/98/22 37/100/22
f 37/100/22 42/98/22 35/101/22
f 35/101/22 42/98/22 33/99/22
f 33/99/22 42/98/22 31/97/22
f 31/97/22 42/98/22 29/94/22
f 29/94/22 42/98/22 27/93/22
f 27/93/22 42/98/22 25/90/22
f 25/90/22 42/98/22 23/89/22
f 21/86/22 42/98/22 19/85/22
f 23/89/22 42/98/22 21/86/22
f 15/81/22 42/98/22 13/83/22
f 17/82/22 42/98/22 15/81/22
f 11/84/22 42/98/22 9/87/22
f 13/83/22 42/98/22 11/84/22
f 9/87/22 42/98/22 7/88/22
f 5/91/22 42/98/22 3/92/22
f 7/88/22 42/98/22 5/91/22
f 26/99/21 41/98/21 28/97/21
f 30/94/21 41/98/21 32/93/21
f 28/97/21 41/98/21 30/94/21
f 34/90/21 41/98/21 36/89/21
f 32/93/21 41/98/21 34/90/21
f 38/86/21 41/98/21 40/85/21
f 36/89/21 41/98/21 38/86/21
f 1/82/21 41/98/21 4/81/21
f 40/85/21 41/98/21 1/82/21
f 4/81/21 41/98/21 6/83/21
f 6/83/21 41/98/21 8/84/21
f 8/84/21 41/98/21 10/87/21
f 10/87/21 41/98/21 12/88/21
f 12/88/21 41/98/21 14/91/21
f 14/91/21 41/98/21 16/92/21
f 16/92/21 41/98/21 18/95/21
f 18/95/21 41/98/21 20/96/21
f 20/96/21 41/98/21 22/100/21
f 22/100/21 41/98/21 24/101/21
f 24/101/21 41/98/21 26/99/21
f 3/3/2 2/2/1 1/1/1
f 1/1/1 4/4/2 3/3/2
f 5/7/3 3/6/2 4/5/2
f 4/5/2 6/8/3 5/7/3
f 7/11/4 5/10/3 6/9/3
f 6/9/3 8/12/4 7/11/4
f 9/15/5 7/14/4 8/13/4
f 8/13/4 10/16/5 9/15/5
f 11/19/6 9/18/5 10/17/5
f 10/17/5 12/20/6 11/19/6
f 13/23/7 11/22/6 12/21/6
f 12/21/6 14/24/7 13/23/7
f 15/27/8 13/26/7 14/25/7
f 14/25/7 16/28/8 15/27/8
f 17/31/9 15/30/8 16/29/8
f 16/29/8 18/32/9 17/31/9
f 19/35/10 17/34/9 18/33/9
f 18/33/9 20/36/10 19/35/10
f 21/39/11 19/38/10 20/37/10
f 20/37/10 22/40/11 21/39/11
f 23/43/12 21/42/11 22/41/11
f 22/41/11 24/44/12 23/43/12
f 25/47/13 23/46/12 24/45/12
f 24/45/12 26/48/13 25/47/13
f 27/51/14 25/50/13 26/49/13
f 26/49/13 28/52/14 27/51/14
f 29/55/15 27/54/14 28/53/14
f 28/53/14 30/56/15 29/55/15
f 31/59/16 29/58/15 30/57/15
f 30/57/15 32/60/16 31/59/16
f 33/63/17 31/62/16 32/61/16
f 32/61/16 34/64/17 33/63/17
f 35/67/18 33/66/17 34/65/17
f 34/65/17 36/68/18 35/67/18
f 37/71/19 35/70/18 36/69/18
f 36/69/18 38/72/19 37/71/19
f 39/75/20 37/74/19 38/73/19
f 38/73/19 40/76/20 39/75/20
f 2/79/1 39/78/20 40/77/20
f 40/77/20 1/80/1 2/79/1

