# ProBuilder 4.5.2
# https://unity3d.com/unity/features/worldbuilding/probuilder
# 2021-09-12 PM 9:40:06

mtllib ./Lens_1.mtl
o Lens_1

g Lens_1
v 0.4755286 -1 -0.1545086
v 0.4755291 -0.7983561 -0.154508
v 0.4045089 -0.7983561 -0.2938923
v 0.4045088 -1 -0.2938928
v 0.2938923 -0.7983561 -0.4045082
v 0.2938928 -1 -0.4045087
v 0.154508 -0.7983561 -0.4755275
v 0.1545086 -1 -0.4755285
v 7.303561E-08 -0.7983561 -0.4999996
v 0 -1 -0.5000002
v -0.1545079 -0.7983561 -0.4755275
v -0.1545086 -1 -0.4755285
v -0.2938921 -0.7983561 -0.4045082
v -0.2938927 -1 -0.4045087
v -0.4045088 -0.7983561 -0.2938923
v -0.4045086 -1 -0.2938927
v -0.4755289 -0.7983561 -0.154508
v -0.4755284 -1 -0.1545085
v -0.5000002 -0.7983561 7.016658E-07
v -0.5000001 -1 0
v -0.4755289 -0.7983561 0.1545094
v -0.4755284 -1 0.1545085
v -0.4045088 -0.7983561 0.2938937
v -0.4045086 -1 0.2938927
v -0.2938921 -0.7983561 0.4045096
v -0.2938927 -1 0.4045086
v -0.1545079 -0.7983561 0.4755289
v -0.1545085 -1 0.4755283
v 7.303561E-08 -0.7983561 0.500001
v -1.490116E-08 -1 0.5000001
v 0.154508 -0.7983561 0.4755289
v 0.1545085 -1 0.4755283
v 0.2938923 -0.7983561 0.4045096
v 0.2938926 -1 0.4045085
v 0.4045089 -0.7983561 0.2938937
v 0.4045085 -1 0.2938927
v 0.4755291 -0.7983561 0.1545094
v 0.4755283 -1 0.1545085
v 0.5000004 -0.7983561 7.016658E-07
v 0.5 -1 0
v 0 -1 0
v 7.303561E-08 -0.7983561 7.016658E-07

vt 0.1505447 0.4435856
vt 0.2504503 0.4435853
vt 0.3503559 0.4435848
vt 0.4502614 0.4435844
vt 0.5501668 0.4435849
vt 0.6500722 0.4435843
vt 0.7499776 0.4435847
vt 0.8498829 0.4435853
vt 0.9497884 0.4435858
vt 0.05063884 0.4435855
vt 0.1427304 0.9322944
vt 0.1427304 0.9524588
vt 0.1583739 0.9524588
vt 0.1583738 0.9322944
vt 0.242636 0.9322944
vt 0.242636 0.9524588
vt 0.2582795 0.9524588
vt 0.2582794 0.9322944
vt 0.3425415 0.9322941
vt 0.3425415 0.9524585
vt 0.358185 0.9524585
vt 0.3581849 0.9322941
vt 0.4424469 0.9322939
vt 0.442447 0.9524583
vt 0.4580904 0.9524583
vt 0.4580904 0.9322939
vt 0.5423523 0.9322942
vt 0.5423523 0.9524586
vt 0.5579957 0.9524586
vt 0.5579958 0.9322942
vt 0.6422578 0.9322938
vt 0.6422577 0.9524581
vt 0.6579012 0.9524581
vt 0.6579012 0.9322938
vt 0.7421631 0.932294
vt 0.742163 0.9524583
vt 0.7578065 0.9524583
vt 0.7578065 0.932294
vt 0.8420683 0.9322944
vt 0.8420682 0.9524588
vt 0.8577117 0.9524588
vt 0.8577117 0.9322944
vt 0.9419735 0.9322943
vt 0.9419734 0.9524587
vt 0.9576169 0.9524587
vt 0.957617 0.9322943
vt 0.04282513 0.9322938
vt 0.04282505 0.9524582
vt 0.05846852 0.9524582
vt 0.05846858 0.9322938
vt 0.02838877 0.6532523
vt 0.2086136 0.9013107
vt 0.0988569 0.7915539
vt 0.3469154 0.971779
vt 0.004107505 0.4999442
vt 0.02838913 0.3466361
vt 0.500224 0.9960608
vt 0.6535327 0.971779
vt 0.09885708 0.2083347
vt 0.2086136 0.09857795
vt 0.7918344 0.9013106
vt 0.901591 0.7915536
vt 0.346915 0.02810972
vt 0.5002234 0.003827875
vt 0.9720588 0.6532521
vt 0.653532 0.02810944
vt 0.9720586 0.3466355
vt 0.5002239 0.4999443
vt 0.9963405 0.4999437
vt 0.7918337 0.09857755
vt 0.9015904 0.2083341

vn 0.9510567 -1.203467E-06 -0.3090164
vn 0.8090156 4.18242E-07 -0.5877871
vn 0.5877833 3.147772E-06 -0.8090184
vn 0.3090176 5.129939E-06 -0.9510564
vn -7.241717E-07 3.820167E-06 -1
vn -0.3090163 5.202149E-06 -0.9510568
vn -0.5877833 4.355049E-06 -0.8090184
vn -0.809016 1.265928E-06 -0.5877866
vn -0.9510569 -1.419027E-06 -0.3090158
vn -1 -9.282572E-07 -7.996057E-07
vn -0.9510565 -3.291229E-06 0.309017
vn -0.8090156 -4.097886E-06 0.5877871
vn -0.5877833 -3.102582E-06 0.8090184
vn -0.3090175 -2.202511E-06 0.9510564
vn 6.63824E-07 -3.912765E-06 1
vn 0.3090163 -2.560913E-06 0.9510568
vn 0.5877832 -2.574572E-06 0.8090184
vn 0.809016 -4.119884E-06 0.5877867
vn 0.9510568 -4.893315E-06 0.3090159
vn 1 -2.374104E-06 7.618885E-07
vn 0 -1 0
vn -5.377001E-08 1 2.202817E-07

usemtl lens
f 15/53/22 42/68/22 13/52/22
f 17/51/22 42/68/22 15/53/22
f 11/54/22 42/68/22 9/57/22
f 13/52/22 42/68/22 11/54/22
f 9/57/22 42/68/22 7/58/22
f 5/61/22 42/68/22 3/62/22
f 7/58/22 42/68/22 5/61/22
f 3/62/22 42/68/22 2/65/22
f 2/65/22 42/68/22 39/69/22
f 39/69/22 42/68/22 37/67/22
f 37/67/22 42/68/22 35/71/22
f 35/71/22 42/68/22 33/70/22
f 33/70/22 42/68/22 31/66/22
f 31/66/22 42/68/22 29/64/22
f 29/64/22 42/68/22 27/63/22
f 27/63/22 42/68/22 25/60/22
f 25/60/22 42/68/22 23/59/22
f 21/56/22 42/68/22 19/55/22
f 23/59/22 42/68/22 21/56/22
f 19/55/22 42/68/22 17/51/22
f 20/69/21 41/68/21 22/67/21
f 22/67/21 41/68/21 24/71/21
f 24/71/21 41/68/21 26/70/21
f 26/70/21 41/68/21 28/66/21
f 30/64/21 41/68/21 32/63/21
f 28/66/21 41/68/21 30/64/21
f 34/60/21 41/68/21 36/59/21
f 32/63/21 41/68/21 34/60/21
f 38/56/21 41/68/21 40/55/21
f 36/59/21 41/68/21 38/56/21
f 4/53/21 41/68/21 6/52/21
f 6/52/21 41/68/21 8/54/21
f 8/54/21 41/68/21 10/57/21
f 1/51/21 41/68/21 4/53/21
f 40/55/21 41/68/21 1/51/21
f 10/57/21 41/68/21 12/58/21
f 12/58/21 41/68/21 14/61/21
f 14/61/21 41/68/21 16/62/21
f 16/62/21 41/68/21 18/65/21
f 18/65/21 41/68/21 20/69/21
f 3/1/2 2/1/1 1/1/1
f 1/1/1 4/1/2 3/1/2
f 5/2/3 3/2/2 4/2/2
f 4/2/2 6/2/3 5/2/3
f 7/3/4 5/3/3 6/3/3
f 6/3/3 8/3/4 7/3/4
f 9/4/5 7/4/4 8/4/4
f 8/4/4 10/4/5 9/4/5
f 11/5/6 9/5/5 10/5/5
f 10/5/5 12/5/6 11/5/6
f 13/6/7 11/6/6 12/6/6
f 12/6/6 14/6/7 13/6/7
f 15/7/8 13/7/7 14/7/7
f 14/7/7 16/7/8 15/7/8
f 17/8/9 15/8/8 16/8/8
f 16/8/8 18/8/9 17/8/9
f 19/9/10 17/9/9 18/9/9
f 18/9/9 20/9/10 19/9/10
f 21/10/11 19/10/10 20/10/10
f 20/10/10 22/10/11 21/10/11
f 23/13/12 21/12/11 22/11/11
f 22/11/11 24/14/12 23/13/12
f 25/17/13 23/16/12 24/15/12
f 24/15/12 26/18/13 25/17/13
f 27/21/14 25/20/13 26/19/13
f 26/19/13 28/22/14 27/21/14
f 29/25/15 27/24/14 28/23/14
f 28/23/14 30/26/15 29/25/15
f 31/29/16 29/28/15 30/27/15
f 30/27/15 32/30/16 31/29/16
f 33/33/17 31/32/16 32/31/16
f 32/31/16 34/34/17 33/33/17
f 35/37/18 33/36/17 34/35/17
f 34/35/17 36/38/18 35/37/18
f 37/41/19 35/40/18 36/39/18
f 36/39/18 38/42/19 37/41/19
f 39/45/20 37/44/19 38/43/19
f 38/43/19 40/46/20 39/45/20
f 2/49/1 39/48/20 40/47/20
f 40/47/20 1/50/1 2/49/1

